<mxfile host="app.diagrams.net" modified="2024-06-22T05:34:08.291Z" agent="Mozilla/5.0 (Windows NT 10.0; Win64; x64) AppleWebKit/537.36 (KHTML, like Gecko) Chrome/125.0.0.0 Safari/537.36" version="24.6.1" etag="cMoe9NA4-VRhw7LfjNQU" type="github">
  <diagram name="Page-1" id="kF9CvafpMxhMx6HmrRnQ">
    <mxGraphModel>
      <root>
        <mxCell id="0" />
        <mxCell id="1" parent="0" />
      </root>
    </mxGraphModel>
  </diagram>
</mxfile>
